<?xml version="1.0" encoding="utf-8"?>
<!-- Generator: Adobe Illustrator 17.0.0, SVG Export Plug-In . SVG Version: 6.00 Build 0)  -->
<!DOCTYPE svg PUBLIC "-//W3C//DTD SVG 1.1//EN" "http://www.w3.org/Graphics/SVG/1.1/DTD/svg11.dtd">
<svg version="1.1"
	 id="Layer_1" xmlns:svg="http://www.w3.org/2000/svg" xmlns:rdf="http://www.w3.org/1999/02/22-rdf-syntax-ns#" xmlns:inkscape="http://www.inkscape.org/namespaces/inkscape" xmlns:sodipodi="http://sodipodi.sourceforge.net/DTD/sodipodi-0.dtd" xmlns:cc="http://creativecommons.org/ns#" xmlns:dc="http://purl.org/dc/elements/1.1/"
	 xmlns="http://www.w3.org/2000/svg" xmlns:xlink="http://www.w3.org/1999/xlink" x="0px" y="0px" width="16px" height="16px"
	 viewBox="0 0 16 16" enable-background="new 0 0 16 16" xml:space="preserve">
<g transform="translate(0,-952.36218)">
	<path fill="#4141dc" d="M10.292,956.686c-0.141,0.005-0.252,0.124-0.247,0.265c0.003,0.07,0.034,0.136,0.087,0.183l2.584,2.372H2.624H2.6
		c-0.134,0.006-0.25,0.134-0.244,0.268c0.006,0.134,0.134,0.25,0.268,0.244h10.092l-2.584,2.368
		c-0.105,0.095-0.114,0.257-0.02,0.362s0.257,0.114,0.362,0.02c0.001-0.001,0.001-0.001,0.002-0.002l3.072-2.816
		c0.105-0.095,0.113-0.257,0.018-0.362c-0.006-0.006-0.012-0.013-0.018-0.018l-3.072-2.816
		C10.426,956.708,10.36,956.684,10.292,956.686z"/>
</g>
</svg>
