<?xml version="1.0" encoding="utf-8"?>
<!-- Generator: Adobe Illustrator 17.0.0, SVG Export Plug-In . SVG Version: 6.00 Build 0)  -->
<!DOCTYPE svg PUBLIC "-//W3C//DTD SVG 1.1//EN" "http://www.w3.org/Graphics/SVG/1.1/DTD/svg11.dtd">
<svg version="1.1"
	 id="Layer_1" xmlns:svg="http://www.w3.org/2000/svg" xmlns:rdf="http://www.w3.org/1999/02/22-rdf-syntax-ns#" xmlns:inkscape="http://www.inkscape.org/namespaces/inkscape" xmlns:sodipodi="http://sodipodi.sourceforge.net/DTD/sodipodi-0.dtd" xmlns:cc="http://creativecommons.org/ns#" xmlns:dc="http://purl.org/dc/elements/1.1/"
	 xmlns="http://www.w3.org/2000/svg" xmlns:xlink="http://www.w3.org/1999/xlink" x="0px" y="0px" width="16px" height="16px"
	 viewBox="0 0 16 16" enable-background="new 0 0 16 16" xml:space="preserve">
<g transform="translate(0,-952.36218)">
	<path fill="#fff" d="M6.464,958.074c-0.421,0-0.768,0.347-0.768,0.768v3.84c0,0.421,0.347,0.768,0.768,0.768h6.656
		c0.421,0,0.768-0.347,0.768-0.768v-3.84c0-0.421-0.347-0.768-0.768-0.768H6.464z M6.464,958.586h6.656
		c0.146,0,0.256,0.11,0.256,0.256v3.84c0,0.146-0.11,0.256-0.256,0.256H6.464c-0.146,0-0.256-0.11-0.256-0.256v-3.84
		C6.208,958.696,6.318,958.586,6.464,958.586z M2.368,958.97c-0.141,0-0.256,0.115-0.256,0.256c0,0.141,0.115,0.256,0.256,0.256
		h2.56c0.141,0,0.256-0.115,0.256-0.256c0-0.141-0.115-0.256-0.256-0.256H2.368z M7.332,959.094c-0.141,0.014-0.244,0.139-0.23,0.28
		c0.006,0.061,0.034,0.118,0.078,0.16l1.288,1.28l-1.28,1.164c-0.105,0.095-0.114,0.257-0.019,0.362
		c0.095,0.105,0.257,0.114,0.362,0.019c0,0,0.001-0.001,0.001-0.001l1.3-1.184l0.388,0.384c0.314,0.311,0.826,0.311,1.14,0
		l0.388-0.384l1.304,1.184c0.105,0.095,0.267,0.088,0.362-0.017c0.095-0.105,0.088-0.267-0.017-0.362c0,0-0.001-0.001-0.001-0.001
		l-1.284-1.168l1.292-1.276c0.102-0.097,0.107-0.26,0.009-0.362c-0.097-0.102-0.259-0.107-0.362-0.009
		c-0.002,0.002-0.005,0.005-0.007,0.007l-2.048,2.024c-0.094,0.093-0.322,0.093-0.416,0l-2.04-2.024
		C7.486,959.115,7.409,959.087,7.332,959.094z M2.88,960.506c-0.141,0-0.256,0.115-0.256,0.256c0,0.141,0.115,0.256,0.256,0.256
		h2.048c0.141,0,0.256-0.115,0.256-0.256c0-0.141-0.115-0.256-0.256-0.256H2.88z M3.392,962.042c-0.141,0-0.256,0.115-0.256,0.256
		c0,0.141,0.115,0.256,0.256,0.256h1.536c0.141,0,0.256-0.115,0.256-0.256c0-0.141-0.115-0.256-0.256-0.256H3.392z"/>
</g>
</svg>
