<?xml version="1.0" encoding="utf-8"?>
<!-- Generator: Adobe Illustrator 17.0.0, SVG Export Plug-In . SVG Version: 6.00 Build 0)  -->
<!DOCTYPE svg PUBLIC "-//W3C//DTD SVG 1.1//EN" "http://www.w3.org/Graphics/SVG/1.1/DTD/svg11.dtd">
<svg version="1.1" id="Layer_1" xmlns="http://www.w3.org/2000/svg" xmlns:xlink="http://www.w3.org/1999/xlink" x="0px" y="0px"
	 width="16px" height="16px" viewBox="0 0 16 16" enable-background="new 0 0 16 16" xml:space="preserve">
<g>
	<g>
		<path fill="#fff" d="M2.906,11.662h10.189c0.499,0,0.909,0.41,0.909,0.909s-0.41,0.909-0.909,0.909H2.918c-0.499,0-0.909-0.41-0.909-0.909
			S2.406,11.662,2.906,11.662z"/>
	</g>
	<g>
		<path fill="#fff" d="M5.504,6.491h7.59c0.499,0,0.909,0.41,0.909,0.909s-0.41,0.909-0.909,0.909H5.517c-0.499,0-0.909-0.41-0.909-0.909
			S5.005,6.491,5.504,6.491z"/>
	</g>
	<g>
		<path fill="#fff" d="M8.102,1.32h4.992c0.499,0,0.909,0.41,0.909,0.909s-0.41,0.909-0.909,0.909H8.102c-0.499,0-0.909-0.41-0.909-0.909
			S7.603,1.32,8.102,1.32z"/>
	</g>
</g>
<rect x="1.6" y="1" fill="none" width="12.8" height="12.8"/>
</svg>
